<?xml version="1.0" encoding="utf-8"?>
<!-- Generator: Adobe Illustrator 27.0.0, SVG Export Plug-In . SVG Version: 6.00 Build 0)  -->
<svg version="1.1" id="Capa_1" xmlns="http://www.w3.org/2000/svg" xmlns:xlink="http://www.w3.org/1999/xlink" x="0px" y="0px"
	 viewBox="0 0 548.24 65.2" style="enable-background:new 0 0 548.24 65.2;" xml:space="preserve">
<style type="text/css">
	.st0{fill:#3A3938;stroke:#FFFFFF;stroke-miterlimit:10;}
	.st1{fill:#FFFFFF;stroke:#000000;stroke-miterlimit:10;}
	.st2{fill:#020203;}
	.st3{fill:none;stroke:#009FE3;stroke-width:0.0938;stroke-miterlimit:10.43;}
	.st4{fill:#FFFFFF;}
	.st5{fill:#60C6F2;}
	.st6{fill:#458DCC;}
	.st7{fill:#3C3C3B;}
</style>
<g>
	<path class="st7" d="M20.8,7.35c-0.66,0-1.33,0-1.99,0L20.8,7.35C20.8,7.36,20.8,7.36,20.8,7.35z"/>
	<path class="st7" d="M58.31,58.01c-6.64,0.59-13.28-1.07-19.24-3.94c-9-4.35-16.66-11.2-22.55-19.22
		c-5.68-7.92-9.72-17.58-8.83-27.49c2.81-0.01,5.62,0,8.43,0V7.36h2.71c0.66,0,1.33,0,1.99,0c0,0,0,0,0,0h7.35
		c-0.3-1.5-0.6-3-0.9-4.5c-0.37-1.69-2.08-2.84-3.77-2.73c-6.2,0-12.39,0-18.59,0C3.62,0.07,2.3,0.7,1.62,1.8
		C1.06,2.83,0.93,4.03,0.71,5.17c-1.5,10.59,2.01,21.29,7.52,30.24c6.5,10.27,15.66,18.94,26.49,24.53
		c7.9,3.97,16.92,6.32,25.78,5.03c1.3-0.27,2.75-0.36,3.8-1.27c0.89-0.67,1.26-1.84,1.26-2.93c-0.01-0.93-0.01-1.85-0.01-2.78h-7.24
		C58.31,58,58.31,58.01,58.31,58.01z"/>
	<path class="st7" d="M65.53,41.8c-0.03-1.69-1.36-3.19-3.03-3.42c-5.14-1.05-10.3-2.05-15.44-3.09c-1.27-0.32-2.73-0.03-3.61,0.98
		c-2.13,2.12-4.26,4.24-6.38,6.38c-1.33,1.28-1.33,3.65,0,4.94c1.27,1.44,3.7,1.46,5.06,0.16c1.72-1.67,3.38-3.39,5.08-5.08
		c3.71,0.69,7.4,1.48,11.1,2.2c0.01,2.9,0,5.8,0,8.7h7.23C65.54,49.64,65.55,45.72,65.53,41.8z"/>
	<path class="st7" d="M23.03,18.46c-1.68,1.71-3.43,3.36-5.09,5.09c-1.14,1.18-1.21,3.09-0.38,4.47c2.65,5.28,6.34,10.06,10.83,13.9
		c1.75,1.55,4.87,0.69,5.57-1.55c0.67-1.52-0.06-3.28-1.29-4.27c-3.05-2.69-5.61-5.9-7.68-9.4c1.44-1.52,2.96-2.96,4.43-4.45
		c0.96-0.9,1.3-2.28,1-3.54c-0.46-2.3-0.92-4.61-1.38-6.91h-7.32C22.17,14.02,22.61,16.24,23.03,18.46z"/>
	<path class="st7" d="M16.1,7.36L16.1,7.36c0.9,0.01,1.8,0,2.71,0H16.1z"/>
</g>
<g>
	<path class="st4" d="M81.56,50.13c-0.55,0-0.95-0.13-1.2-0.38c-0.25-0.25-0.38-0.65-0.38-1.2V7.93c0-0.59,0.13-1,0.38-1.23
		c0.25-0.23,0.65-0.35,1.2-0.35h15.29c4.55,0,8.15,1.2,10.8,3.6c2.65,2.4,3.98,5.67,3.98,9.79c0,2.53-0.7,4.8-2.09,6.82
		c-1.39,2.02-3.35,3.6-5.88,4.74l9.73,16.3c0.42,0.67,0.63,1.18,0.63,1.52c0,0.67-0.46,1.01-1.39,1.01h-6.19
		c-0.59,0-1.02-0.07-1.3-0.22c-0.27-0.15-0.56-0.45-0.85-0.92l-9.04-15.86h-6.19v15.42c0,0.55-0.12,0.95-0.35,1.2
		c-0.23,0.25-0.64,0.38-1.23,0.38H81.56z M95.65,26.57c4.42,0,6.63-2.23,6.63-6.7c0-4.38-2.17-6.57-6.51-6.57h-6.7v13.27H95.65z"/>
	<path class="st4" d="M133.75,51.08c-5.35,0-9.43-1.45-12.23-4.36c-2.8-2.91-4.2-7.16-4.2-12.76c0-5.39,1.39-9.58,4.17-12.57
		c2.78-2.99,6.63-4.49,11.56-4.49c4.17,0,7.38,1.15,9.64,3.44c2.25,2.3,3.38,5.57,3.38,9.83c0,1.31-0.11,2.8-0.32,4.49
		c-0.08,0.63-0.25,1.05-0.51,1.26c-0.25,0.21-0.63,0.32-1.14,0.32h-18.26c0.17,2.78,1.01,4.79,2.53,6.03
		c1.52,1.24,3.9,1.86,7.14,1.86c2.32,0,5.01-0.4,8.09-1.2c0.13-0.04,0.25-0.07,0.38-0.09c0.13-0.02,0.23-0.03,0.32-0.03
		c0.72,0,1.07,0.48,1.07,1.45v2.91c0,0.67-0.09,1.15-0.28,1.42c-0.19,0.27-0.56,0.52-1.11,0.73
		C140.79,50.49,137.37,51.08,133.75,51.08z M138.18,30.55v-1.07c0-4.13-1.81-6.19-5.43-6.19c-2.06,0-3.7,0.62-4.9,1.86
		c-1.2,1.24-1.89,3.04-2.05,5.4H138.18z"/>
	<path class="st4" d="M167.37,50.83c-5.14,0-9.07-1.43-11.78-4.3c-2.72-2.86-4.08-6.99-4.08-12.38c0-5.35,1.43-9.52,4.3-12.51
		c2.86-2.99,6.84-4.49,11.94-4.49c2.53,0,4.91,0.46,7.14,1.39c0.55,0.21,0.92,0.45,1.11,0.73s0.28,0.75,0.28,1.42v2.91
		c0,0.97-0.36,1.45-1.07,1.45c-0.08,0-0.19-0.01-0.32-0.03c-0.13-0.02-0.25-0.05-0.38-0.1c-1.77-0.46-3.45-0.7-5.05-0.7
		c-2.95,0-5.12,0.75-6.51,2.24c-1.39,1.5-2.09,3.86-2.09,7.11v0.88c0,3.2,0.68,5.55,2.05,7.04c1.37,1.5,3.48,2.24,6.35,2.24
		c1.6,0,3.33-0.23,5.18-0.7c0.51-0.13,0.84-0.19,1.01-0.19c0.67,0,1.01,0.42,1.01,1.26v3.16c0,0.67-0.09,1.15-0.28,1.42
		c-0.19,0.27-0.56,0.52-1.11,0.73c-1.35,0.51-2.62,0.86-3.82,1.07C170.05,50.72,168.76,50.83,167.37,50.83z"/>
	<path class="st4" d="M191.31,51.15c-3.12,0-5.61-0.88-7.49-2.65c-1.87-1.77-2.81-4.13-2.81-7.08c0-2.06,0.54-3.89,1.61-5.47
		s2.56-2.78,4.45-3.6c1.9-0.82,4.06-1.23,6.51-1.23c2.02,0,4.25,0.28,6.7,0.82v-3.16c0-1.94-0.4-3.26-1.2-3.98
		c-0.8-0.72-2.27-1.07-4.42-1.07c-2.86,0-6.09,0.51-9.67,1.52c-0.13,0.04-0.25,0.07-0.38,0.09c-0.13,0.02-0.23,0.03-0.32,0.03
		c-0.72,0-1.07-0.48-1.07-1.45v-2.84c0-0.67,0.08-1.14,0.25-1.39c0.17-0.25,0.55-0.51,1.14-0.76c1.47-0.63,3.25-1.13,5.34-1.48
		c2.08-0.36,4.2-0.54,6.35-0.54c4.34,0,7.51,0.87,9.51,2.62c2,1.75,3,4.5,3,8.24v20.79c0,0.55-0.12,0.95-0.35,1.2
		c-0.23,0.25-0.64,0.38-1.23,0.38h-4.3c-0.51,0-0.9-0.11-1.17-0.32c-0.27-0.21-0.47-0.57-0.6-1.07l-0.38-1.45
		c-1.31,1.18-2.81,2.12-4.52,2.81C194.57,50.8,192.91,51.15,191.31,51.15z M193.9,44.95c1.05,0,2.14-0.23,3.25-0.7
		c1.12-0.46,2.16-1.1,3.13-1.9v-5.5c-1.85-0.29-3.52-0.44-4.99-0.44c-3.66,0-5.5,1.47-5.5,4.42c0,1.31,0.36,2.32,1.07,3.03
		C191.58,44.6,192.6,44.95,193.9,44.95z"/>
	<path class="st4" d="M219.11,50.13c-0.55,0-0.95-0.13-1.2-0.38c-0.25-0.25-0.38-0.65-0.38-1.2V19.43c0-0.59,0.13-1,0.38-1.23
		c0.25-0.23,0.65-0.35,1.2-0.35h4.55c0.97,0,1.56,0.46,1.77,1.39l0.82,3.41c1.68-1.85,3.27-3.17,4.77-3.95
		c1.49-0.78,3.09-1.17,4.77-1.17h0.88c0.59,0,1.01,0.12,1.26,0.35c0.25,0.23,0.38,0.64,0.38,1.23v5.31c0,0.55-0.12,0.95-0.35,1.2
		c-0.23,0.25-0.64,0.38-1.23,0.38c-0.29,0-0.67-0.02-1.14-0.06c-0.46-0.04-1.05-0.06-1.77-0.06c-0.97,0-2.15,0.14-3.54,0.41
		c-1.39,0.27-2.57,0.62-3.54,1.04v21.23c0,0.55-0.12,0.95-0.35,1.2c-0.23,0.25-0.64,0.38-1.23,0.38H219.11z"/>
	<path class="st4" d="M255.76,63.91c-3.58,0-6.99-0.7-10.24-2.09c-0.59-0.25-0.97-0.52-1.14-0.79c-0.17-0.27-0.25-0.73-0.25-1.36
		v-2.91c0-0.97,0.36-1.45,1.07-1.45c0.25,0,0.57,0.06,0.95,0.19c3.29,0.97,6.21,1.45,8.78,1.45c2.78,0,4.79-0.64,6.03-1.93
		c1.24-1.28,1.86-3.38,1.86-6.29v-2.53c-2.4,2.15-5.22,3.22-8.47,3.22c-3.92,0-7.04-1.46-9.38-4.39c-2.34-2.93-3.51-6.83-3.51-11.72
		c0-4.97,1.18-8.95,3.54-11.94c2.36-2.99,5.52-4.49,9.48-4.49c1.77,0,3.43,0.32,4.99,0.95c1.56,0.63,2.95,1.56,4.17,2.78l0.38-1.39
		c0.13-0.51,0.33-0.86,0.6-1.07c0.27-0.21,0.66-0.32,1.17-0.32h4.55c0.59,0,1,0.12,1.23,0.35c0.23,0.23,0.35,0.64,0.35,1.23v28.18
		c0,5.14-1.43,9.14-4.3,12.01C264.77,62.48,260.81,63.91,255.76,63.91z M257.21,42.62c0.97,0,1.95-0.16,2.94-0.47
		c0.99-0.32,1.88-0.75,2.69-1.29V25.3c-1.73-1.05-3.75-1.58-6.07-1.58c-4.04,0-6.07,3.12-6.07,9.35c0,3.24,0.53,5.65,1.58,7.2
		C253.34,41.84,254.98,42.62,257.21,42.62z"/>
	<path class="st4" d="M289.06,51.15c-3.12,0-5.61-0.88-7.49-2.65c-1.87-1.77-2.81-4.13-2.81-7.08c0-2.06,0.54-3.89,1.61-5.47
		c1.07-1.58,2.56-2.78,4.45-3.6c1.9-0.82,4.06-1.23,6.51-1.23c2.02,0,4.25,0.28,6.7,0.82v-3.16c0-1.94-0.4-3.26-1.2-3.98
		c-0.8-0.72-2.27-1.07-4.42-1.07c-2.86,0-6.09,0.51-9.67,1.52c-0.13,0.04-0.25,0.07-0.38,0.09c-0.13,0.02-0.23,0.03-0.32,0.03
		c-0.72,0-1.07-0.48-1.07-1.45v-2.84c0-0.67,0.08-1.14,0.25-1.39c0.17-0.25,0.55-0.51,1.14-0.76c1.47-0.63,3.25-1.13,5.34-1.48
		s4.2-0.54,6.35-0.54c4.34,0,7.51,0.87,9.51,2.62c2,1.75,3,4.5,3,8.24v20.79c0,0.55-0.12,0.95-0.35,1.2
		c-0.23,0.25-0.64,0.38-1.23,0.38h-4.3c-0.51,0-0.9-0.11-1.17-0.32c-0.28-0.21-0.47-0.57-0.6-1.07l-0.38-1.45
		c-1.31,1.18-2.81,2.12-4.52,2.81C292.31,50.8,290.66,51.15,289.06,51.15z M291.65,44.95c1.05,0,2.14-0.23,3.25-0.7
		c1.12-0.46,2.16-1.1,3.13-1.9v-5.5c-1.85-0.29-3.52-0.44-4.99-0.44c-3.66,0-5.5,1.47-5.5,4.42c0,1.31,0.36,2.32,1.07,3.03
		C289.33,44.6,290.34,44.95,291.65,44.95z"/>
	<path class="st4" d="M329.49,50.83c-5.14,0-9.07-1.43-11.78-4.3c-2.72-2.86-4.08-6.99-4.08-12.38c0-5.35,1.43-9.52,4.3-12.51
		c2.86-2.99,6.84-4.49,11.94-4.49c2.53,0,4.91,0.46,7.14,1.39c0.55,0.21,0.92,0.45,1.11,0.73s0.28,0.75,0.28,1.42v2.91
		c0,0.97-0.36,1.45-1.07,1.45c-0.09,0-0.19-0.01-0.32-0.03c-0.13-0.02-0.25-0.05-0.38-0.1c-1.77-0.46-3.45-0.7-5.06-0.7
		c-2.95,0-5.12,0.75-6.51,2.24c-1.39,1.5-2.09,3.86-2.09,7.11v0.88c0,3.2,0.68,5.55,2.05,7.04c1.37,1.5,3.48,2.24,6.35,2.24
		c1.6,0,3.33-0.23,5.18-0.7c0.51-0.13,0.84-0.19,1.01-0.19c0.67,0,1.01,0.42,1.01,1.26v3.16c0,0.67-0.09,1.15-0.28,1.42
		c-0.19,0.27-0.56,0.52-1.11,0.73c-1.35,0.51-2.62,0.86-3.82,1.07C332.18,50.72,330.88,50.83,329.49,50.83z"/>
	<path class="st4" d="M346.74,50.13c-0.55,0-0.95-0.13-1.2-0.38c-0.25-0.25-0.38-0.65-0.38-1.2V19.43c0-0.59,0.13-1,0.38-1.23
		c0.25-0.23,0.65-0.35,1.2-0.35h4.55c0.97,0,1.56,0.46,1.77,1.39l0.82,3.41c1.68-1.85,3.27-3.17,4.77-3.95
		c1.49-0.78,3.09-1.17,4.77-1.17h0.88c0.59,0,1.01,0.12,1.26,0.35c0.25,0.23,0.38,0.64,0.38,1.23v5.31c0,0.55-0.12,0.95-0.35,1.2
		c-0.23,0.25-0.64,0.38-1.23,0.38c-0.3,0-0.67-0.02-1.14-0.06c-0.46-0.04-1.05-0.06-1.77-0.06c-0.97,0-2.15,0.14-3.54,0.41
		c-1.39,0.27-2.57,0.62-3.54,1.04v21.23c0,0.55-0.12,0.95-0.35,1.2c-0.23,0.25-0.64,0.38-1.23,0.38H346.74z"/>
	<path class="st4" d="M385.54,51.08c-5.35,0-9.43-1.45-12.23-4.36c-2.8-2.91-4.2-7.16-4.2-12.76c0-5.39,1.39-9.58,4.17-12.57
		c2.78-2.99,6.63-4.49,11.56-4.49c4.17,0,7.38,1.15,9.64,3.44c2.25,2.3,3.38,5.57,3.38,9.83c0,1.31-0.11,2.8-0.32,4.49
		c-0.09,0.63-0.25,1.05-0.51,1.26c-0.25,0.21-0.63,0.32-1.14,0.32h-18.26c0.17,2.78,1.01,4.79,2.53,6.03
		c1.52,1.24,3.9,1.86,7.14,1.86c2.32,0,5.01-0.4,8.09-1.2c0.13-0.04,0.25-0.07,0.38-0.09c0.13-0.02,0.23-0.03,0.32-0.03
		c0.72,0,1.07,0.48,1.07,1.45v2.91c0,0.67-0.09,1.15-0.28,1.42c-0.19,0.27-0.56,0.52-1.11,0.73
		C392.57,50.49,389.16,51.08,385.54,51.08z M389.96,30.55v-1.07c0-4.13-1.81-6.19-5.43-6.19c-2.06,0-3.7,0.62-4.9,1.86
		c-1.2,1.24-1.89,3.04-2.05,5.4H389.96z M382,12.22c-0.72,0-1.07-0.29-1.07-0.88c0-0.25,0.21-0.7,0.63-1.33l4.55-7.27
		c0.29-0.46,0.6-0.78,0.92-0.95c0.32-0.17,0.75-0.25,1.3-0.25h6.19c0.72,0,1.07,0.29,1.07,0.88c0,0.38-0.25,0.86-0.76,1.45
		l-5.88,7.08c-0.42,0.51-0.79,0.84-1.11,1.01c-0.32,0.17-0.77,0.25-1.36,0.25H382z"/>
	<path class="st4" d="M416.68,50.83c-2.74,0-5.12-0.7-7.14-2.12c-2.02-1.41-3.57-3.37-4.64-5.88c-1.07-2.51-1.61-5.4-1.61-8.69
		c0-5.22,1.24-9.4,3.73-12.54c2.49-3.14,5.77-4.71,9.86-4.71c3.33,0,6.21,0.95,8.66,2.84V4.96c0-0.59,0.13-1,0.38-1.23
		c0.25-0.23,0.65-0.35,1.2-0.35h6.07c0.59,0,1,0.12,1.23,0.35c0.23,0.23,0.35,0.64,0.35,1.23v43.6c0,0.55-0.12,0.95-0.35,1.2
		c-0.23,0.25-0.64,0.38-1.23,0.38h-5.05c-0.51,0-0.9-0.11-1.17-0.32c-0.28-0.21-0.47-0.57-0.6-1.07l-0.38-1.45
		C423.36,49.65,420.26,50.83,416.68,50.83z M419.72,43.88c2.02,0,3.96-0.59,5.81-1.77V25.43c-1.81-1.05-3.9-1.58-6.26-1.58
		c-2.23,0-3.9,0.83-4.99,2.5c-1.1,1.66-1.64,4.18-1.64,7.55c0,3.37,0.58,5.88,1.74,7.52C415.54,43.06,417.32,43.88,419.72,43.88z"/>
	<path class="st4" d="M448.47,12.86c-1.6,0-2.89-0.44-3.85-1.33c-0.97-0.88-1.45-2.09-1.45-3.6c0-1.52,0.48-2.72,1.45-3.6
		c0.97-0.88,2.25-1.33,3.85-1.33c1.6,0,2.88,0.44,3.85,1.33c0.97,0.88,1.45,2.09,1.45,3.6c0,1.52-0.48,2.72-1.45,3.6
		C451.35,12.41,450.07,12.86,448.47,12.86z M445.43,50.13c-0.55,0-0.95-0.13-1.2-0.38c-0.25-0.25-0.38-0.65-0.38-1.2V19.43
		c0-0.59,0.13-1,0.38-1.23c0.25-0.23,0.65-0.35,1.2-0.35h6.07c0.59,0,1,0.12,1.23,0.35c0.23,0.23,0.35,0.64,0.35,1.23v29.13
		c0,0.55-0.12,0.95-0.35,1.2c-0.23,0.25-0.64,0.38-1.23,0.38H445.43z"/>
	<path class="st4" d="M473.74,50.64c-3.58,0-6.22-0.84-7.93-2.53c-1.71-1.68-2.56-4.3-2.56-7.83V24.67h-3.29
		c-0.55,0-0.95-0.13-1.2-0.38c-0.25-0.25-0.38-0.65-0.38-1.2V20.5c0-0.55,0.12-0.95,0.35-1.2c0.23-0.25,0.62-0.44,1.17-0.57
		l3.6-0.76l1.14-7.2c0.08-0.59,0.26-1.01,0.54-1.26c0.27-0.25,0.68-0.38,1.23-0.38h4.49c0.59,0,1,0.12,1.23,0.35
		c0.23,0.23,0.35,0.64,0.35,1.23v7.14h7.14c0.59,0,1,0.12,1.23,0.35c0.23,0.23,0.35,0.64,0.35,1.23v3.67c0,0.55-0.12,0.95-0.35,1.2
		c-0.23,0.25-0.64,0.38-1.23,0.38h-7.14v15.16c0,1.35,0.34,2.3,1.01,2.84c0.67,0.55,1.81,0.82,3.41,0.82c0.67,0,1.33-0.05,1.96-0.16
		c0.63-0.1,1.12-0.16,1.45-0.16c0.72,0,1.07,0.46,1.07,1.39v3.1c0,0.72-0.11,1.22-0.32,1.52c-0.21,0.29-0.57,0.51-1.07,0.63
		C478.14,50.37,476.05,50.64,473.74,50.64z"/>
	<path class="st4" d="M501.41,51.08c-5.01,0-8.93-1.51-11.75-4.52c-2.82-3.01-4.23-7.21-4.23-12.61c0-5.35,1.41-9.53,4.23-12.54
		c2.82-3.01,6.74-4.52,11.75-4.52c5.01,0,8.93,1.51,11.75,4.52c2.82,3.01,4.23,7.19,4.23,12.54c0,5.39-1.41,9.59-4.23,12.61
		C510.34,49.58,506.43,51.08,501.41,51.08z M501.41,44.01c4.42,0,6.63-3.35,6.63-10.05c0-6.65-2.21-9.98-6.63-9.98
		c-4.42,0-6.63,3.33-6.63,9.98C494.78,40.66,496.99,44.01,501.41,44.01z"/>
	<path class="st4" d="M533.83,51.15c-3.75,0-7.12-0.65-10.11-1.96c-0.59-0.25-0.97-0.52-1.14-0.79c-0.17-0.27-0.25-0.73-0.25-1.36
		V44.2c0-0.97,0.36-1.45,1.07-1.45c0.21,0,0.51,0.06,0.88,0.19c1.39,0.46,2.94,0.82,4.64,1.07c1.71,0.25,3.32,0.38,4.83,0.38
		c3.03,0,4.55-1.05,4.55-3.16c0-0.84-0.24-1.49-0.73-1.96c-0.48-0.46-1.46-0.97-2.94-1.52l-4.93-1.96
		c-2.57-1.01-4.42-2.25-5.56-3.73c-1.14-1.47-1.71-3.35-1.71-5.62c0-2.86,1.15-5.17,3.44-6.92c2.3-1.75,5.36-2.62,9.19-2.62
		c2.99,0,5.79,0.51,8.4,1.52c0.55,0.21,0.92,0.45,1.11,0.73c0.19,0.27,0.28,0.75,0.28,1.42v2.78c0,0.97-0.36,1.45-1.07,1.45
		c-0.25,0-0.84-0.13-1.77-0.38c-1.77-0.51-3.81-0.76-6.13-0.76c-1.73,0-2.99,0.21-3.79,0.63c-0.8,0.42-1.2,1.1-1.2,2.02
		c0,0.72,0.24,1.3,0.73,1.74c0.48,0.44,1.51,0.98,3.06,1.61l4.8,1.96c2.61,1.05,4.47,2.27,5.59,3.66c1.12,1.39,1.67,3.2,1.67,5.43
		c0,3.12-1.19,5.63-3.57,7.55C540.83,50.19,537.7,51.15,533.83,51.15z"/>
</g>
</svg>
